<?xml version="1.0" encoding="UTF-8" standalone="no"?>
<!-- Created with Inkscape (http://www.inkscape.org/) -->

<svg
   width="4.5mm"
   height="4mm"
   viewBox="0 0 4.4999998 4"
   version="1.1"
   id="svg1"
   inkscape:version="1.4.1-rc (d9e8dc1fe0, 2025-03-10)"
   sodipodi:docname="m.svg"
   xmlns:inkscape="http://www.inkscape.org/namespaces/inkscape"
   xmlns:sodipodi="http://sodipodi.sourceforge.net/DTD/sodipodi-0.dtd"
   xmlns="http://www.w3.org/2000/svg"
   xmlns:svg="http://www.w3.org/2000/svg">
  <sodipodi:namedview
     id="namedview1"
     pagecolor="#ffffff"
     bordercolor="#000000"
     borderopacity="0.25"
     inkscape:showpageshadow="2"
     inkscape:pageopacity="0.0"
     inkscape:pagecheckerboard="0"
     inkscape:deskcolor="#d1d1d1"
     inkscape:document-units="mm"
     inkscape:zoom="32.332952"
     inkscape:cx="10.175378"
     inkscape:cy="9.6495983"
     inkscape:window-width="1920"
     inkscape:window-height="1010"
     inkscape:window-x="0"
     inkscape:window-y="32"
     inkscape:window-maximized="1"
     inkscape:current-layer="layer1"
     showgrid="true"
     showguides="true">
    <inkscape:grid
       id="grid2"
       units="mm"
       originx="0"
       originy="0"
       spacingx="0.1"
       spacingy="0.099999999"
       empcolor="#0099e5"
       empopacity="0.30196078"
       color="#0099e5"
       opacity="0.14901961"
       empspacing="40"
       enabled="true"
       visible="true"
       dotted="false" />
    <sodipodi:guide
       position="2.8000002,0.79999985"
       orientation="0,-1"
       id="guide1"
       inkscape:locked="false" />
    <sodipodi:guide
       position="2.9000002,3.1999999"
       orientation="0,-1"
       id="guide2"
       inkscape:locked="false" />
  </sodipodi:namedview>
  <defs
     id="defs1" />
  <g
     inkscape:label="Layer 1"
     inkscape:groupmode="layer"
     id="layer1">
    <path
       id="path4"
       style="fill:#1a1a1a;stroke:#000000;stroke-width:0;stroke-linecap:round;stroke-linejoin:round"
       d="M 1.300179,0.79995117 A 1.2,1.1999999 0 0 0 0.10025228,1.9998779 V 3.1998047 H 0.60048014 V 1.9998779 A 0.70000005,0.69999999 0 0 1 1.300179,1.2996623 a 0.70000005,0.69999999 0 0 1 0.6996989,0.6965983 1.2,1.1999999 0 0 0 0,0.00362 v 1.1999268 h 5.168e-4 0.4997111 V 1.9998779 A 0.70000005,0.69999999 0 0 1 3.1998047,1.2996623 0.70000005,0.69999999 0 0 1 3.9000203,1.9998779 V 3.1998047 H 4.3997314 V 1.9998779 A 1.2,1.1999999 0 0 0 3.1998047,0.79995117 1.2,1.1999999 0 0 0 2.2499919,1.2665894 1.2,1.1999999 0 0 0 1.300179,0.79995117 Z" />
  </g>
</svg>
